<svg xmlns="http://www.w3.org/2000/svg" viewBox="0 0 512 512">
  <defs>
    <linearGradient id="bg" x1="72" y1="42" x2="438" y2="472" gradientUnits="userSpaceOnUse">
      <stop stop-color="#191d25"/>
      <stop offset="1" stop-color="#090b0f"/>
    </linearGradient>
    <linearGradient id="mark" x1="150" y1="130" x2="360" y2="382" gradientUnits="userSpaceOnUse">
      <stop stop-color="#62f2dc"/>
      <stop offset="1" stop-color="#29c6b1"/>
    </linearGradient>
  </defs>
  <rect width="512" height="512" rx="116" fill="url(#bg)"/>
  <rect x="42" y="42" width="428" height="428" rx="90" fill="none" stroke="#ffffff" stroke-opacity=".08" stroke-width="4"/>
  <path d="M174 138h164a28 28 0 0 1 28 28v29H146v-29a28 28 0 0 1 28-28Z" fill="#f05370"/>
  <path d="M148 184h216v162a32 32 0 0 1-32 32H180a32 32 0 0 1-32-32V184Z" fill="url(#mark)"/>
  <path d="M208 237h96M208 282h96M208 327h61" fill="none" stroke="#08211e" stroke-linecap="round" stroke-width="22"/>
  <path d="M213 105h86" fill="none" stroke="#f4f7fb" stroke-linecap="round" stroke-width="22"/>
</svg>
